<?xml version="1.0" standalone="no"?>
<!DOCTYPE svg PUBLIC "-//W3C//DTD SVG 20010904//EN"
 "http://www.w3.org/TR/2001/REC-SVG-20010904/DTD/svg10.dtd">
<svg version="1.0" xmlns="http://www.w3.org/2000/svg"
 width="1500.000000pt" height="1500.000000pt" viewBox="0 0 1500.000000 1500.000000"
 preserveAspectRatio="xMidYMid meet">
<metadata>
Created by potrace 1.11, written by Peter Selinger 2001-2013
</metadata>
<g transform="translate(0.000000,1500.000000) scale(0.100000,-0.100000)"
fill="#000000" stroke="none">
<path d="M0 7500 l0 -7500 7500 0 7500 0 0 7500 0 7500 -7500 0 -7500 0 0
-7500z m3980 3950 l746 0 229 -327 c360 -515 484 -692 549 -783 34 -47 83
-116 109 -155 27 -38 81 -117 122 -175 41 -58 109 -156 151 -217 42 -62 79
-113 81 -113 3 0 17 8 31 19 53 36 259 140 377 189 373 155 717 223 1125 224
403 1 754 -67 1125 -219 141 -58 199 -88 365 -185 426 -250 764 -585 1027
-1021 207 -343 346 -760 395 -1182 18 -156 15 -511 -6 -665 -65 -481 -216
-886 -477 -1275 -159 -237 -373 -471 -584 -638 -60 -48 -115 -91 -120 -95 -6
-5 -51 -35 -100 -68 -433 -289 -910 -449 -1446 -484 -265 -18 -560 6 -819 65
-848 194 -1562 749 -1956 1520 -199 389 -296 767 -320 1240 -14 290 41 681
139 985 161 497 473 972 855 1299 l121 104 -74 106 c-41 58 -104 149 -140 201
-79 113 -169 242 -410 585 -99 140 -187 266 -195 279 -8 13 -28 42 -45 65 -35
48 -87 123 -200 285 l-80 115 -1187 1 -1188 0 0 167 0 166 527 -6 c289 -4 862
-7 1273 -7z m-60 -1135 l0 -145 -433 0 c-323 0 -463 -4 -553 -15 -448 -55
-660 -211 -741 -545 -14 -55 -17 -184 -22 -875 l-6 -810 -27 -80 c-37 -107
-90 -194 -168 -274 -80 -82 -104 -101 -188 -153 -166 -101 -427 -182 -687
-213 -72 -8 -59 -18 50 -34 542 -83 916 -339 1006 -689 18 -71 19 -117 19
-806 0 -789 3 -850 53 -993 69 -198 220 -331 452 -398 187 -54 235 -58 753
-64 l483 -6 2 -143 2 -144 -555 4 c-608 5 -686 11 -930 69 -258 62 -483 178
-620 321 -60 63 -144 193 -174 271 -59 148 -58 144 -66 1007 -7 825 -7 820
-51 940 -116 312 -442 471 -1046 512 l-173 12 0 127 c0 147 -6 139 103 139 93
0 302 25 431 51 407 82 620 242 708 531 22 72 22 84 28 873 7 852 7 850 58
996 126 360 497 587 1067 654 182 21 185 21 733 23 l492 2 0 -145z m8410 121
c631 -87 973 -322 1087 -747 15 -57 17 -156 23 -864 6 -707 9 -808 24 -865 55
-212 146 -339 311 -435 183 -106 462 -173 814 -193 l116 -7 3 -131 3 -131
-123 -7 c-407 -23 -711 -106 -893 -244 -105 -79 -187 -211 -227 -365 -21 -79
-22 -107 -28 -887 -7 -864 -5 -830 -60 -975 -128 -337 -476 -549 -1035 -631
-108 -16 -242 -18 -1377 -21 l-1258 -4 0 139 0 139 1131 7 c921 6 1153 10
1248 22 382 50 585 173 689 421 55 130 55 126 61 993 7 884 4 830 69 969 58
122 163 245 284 329 151 105 411 194 686 233 46 6 81 13 80 15 -2 2 -51 10
-108 19 -558 82 -889 307 -985 668 l-25 92 0 710 c-1 714 -6 859 -35 970 -65
245 -246 402 -542 469 -157 35 -216 39 -688 45 l-480 6 -3 144 -3 143 563 -5
c436 -4 589 -9 678 -21z m-970 -534 c0 -11 -35 -162 -79 -338 -43 -175 -121
-492 -172 -704 -51 -212 -96 -389 -101 -395 -11 -12 -176 -17 -183 -6 -2 5 2
32 10 62 14 51 278 1119 311 1259 8 36 20 82 25 103 l10 37 89 0 c81 0 90 -2
90 -18z m-595 -304 l0 -122 -106 -91 c-58 -49 -147 -125 -198 -169 l-94 -79
29 -26 c16 -14 54 -46 84 -71 30 -25 66 -55 80 -66 14 -12 63 -54 110 -94 52
-45 87 -83 91 -99 11 -43 10 -231 -1 -231 -5 0 -143 114 -307 253 l-298 253
-3 74 c-1 41 1 80 5 86 5 6 71 63 148 128 77 64 151 127 165 139 40 35 152
132 184 158 16 13 43 36 60 51 17 15 36 28 41 28 7 0 11 -44 10 -122z m736 70
c30 -25 149 -126 264 -223 304 -255 275 -223 275 -310 l0 -73 -57 -50 c-227
-196 -547 -461 -554 -457 -4 3 -8 58 -8 121 1 131 -4 122 104 209 28 22 59 48
70 58 11 11 66 57 123 104 69 58 99 89 93 97 -5 6 -95 83 -200 171 l-191 160
0 123 c0 143 -1 142 81 70z"/>
<path d="M7255 9779 c-295 -34 -523 -92 -762 -194 -512 -218 -934 -587 -1220
-1065 -408 -683 -477 -1541 -183 -2279 363 -911 1211 -1546 2181 -1632 163
-14 461 -7 609 16 122 19 354 74 457 109 268 91 573 258 776 423 45 37 84 69
87 73 3 3 36 32 74 65 82 72 258 270 339 383 494 689 621 1574 342 2382 -51
147 -189 423 -280 560 -219 329 -490 591 -819 790 -306 186 -633 304 -987 355
-134 20 -495 28 -614 14z"/>
</g>
</svg>
